<mxfile host="Electron" modified="2021-01-16T13:46:40.833Z" agent="5.0 (X11; Linux x86_64) AppleWebKit/537.36 (KHTML, like Gecko) draw.io/14.1.8 Chrome/87.0.4280.141 Electron/11.2.0 Safari/537.36" etag="PvVigmrwTXdFpBGSa5lM" compressed="false" version="14.1.8" type="device">
  <diagram id="9XrS1GHqLKZMvzqyOHTl" name="Page-1">
    <mxGraphModel dx="1682" dy="1260" grid="1" gridSize="3.937" guides="1" tooltips="1" connect="1" arrows="1" fold="1" page="1" pageScale="1" pageWidth="10000" pageHeight="10000" math="0" shadow="0">
      <root>
        <mxCell id="0" />
        <mxCell id="1" parent="0" />
        <mxCell id="HHnZ4qpc_pkSZuf3FhQu-21" value="Vertex" style="swimlane;fontStyle=1;childLayout=stackLayout;horizontal=1;startSize=26;fillColor=#f8cecc;horizontalStack=0;resizeParent=1;resizeParentMax=0;resizeLast=0;collapsible=1;marginBottom=0;fontSize=15;strokeWidth=2;strokeColor=#b85450;fontFamily=Jetbrains Mono;" parent="1" vertex="1">
          <mxGeometry x="5380" y="3650" width="290" height="368" as="geometry" />
        </mxCell>
        <mxCell id="HHnZ4qpc_pkSZuf3FhQu-22" value="ID string" style="text;strokeColor=none;fillColor=none;align=left;verticalAlign=top;spacingLeft=4;spacingRight=4;overflow=hidden;rotatable=0;points=[[0,0.5],[1,0.5]];portConstraint=eastwest;fontSize=14;fontStyle=0;fontFamily=Jetbrains Mono;" parent="HHnZ4qpc_pkSZuf3FhQu-21" vertex="1">
          <mxGeometry y="26" width="290" height="26" as="geometry" />
        </mxCell>
        <mxCell id="HHnZ4qpc_pkSZuf3FhQu-26" value="" style="line;strokeWidth=1;fillColor=none;align=left;verticalAlign=middle;spacingTop=-1;spacingLeft=3;spacingRight=3;rotatable=0;labelPosition=right;points=[];portConstraint=eastwest;fontSize=15;fontColor=#000000;fontFamily=Jetbrains Mono;" parent="HHnZ4qpc_pkSZuf3FhQu-21" vertex="1">
          <mxGeometry y="52" width="290" height="8" as="geometry" />
        </mxCell>
        <mxCell id="HHnZ4qpc_pkSZuf3FhQu-23" value="Iface interface{}" style="text;strokeColor=none;fillColor=none;align=left;verticalAlign=top;spacingLeft=4;spacingRight=4;overflow=hidden;rotatable=0;points=[[0,0.5],[1,0.5]];portConstraint=eastwest;fontSize=14;fontStyle=0;fontFamily=Jetbrains Mono;" parent="HHnZ4qpc_pkSZuf3FhQu-21" vertex="1">
          <mxGeometry y="60" width="290" height="26" as="geometry" />
        </mxCell>
        <mxCell id="HHnZ4qpc_pkSZuf3FhQu-25" value="" style="line;strokeWidth=1;fillColor=none;align=left;verticalAlign=middle;spacingTop=-1;spacingLeft=3;spacingRight=3;rotatable=0;labelPosition=right;points=[];portConstraint=eastwest;fontSize=15;fontColor=#000000;fontFamily=Jetbrains Mono;" parent="HHnZ4qpc_pkSZuf3FhQu-21" vertex="1">
          <mxGeometry y="86" width="290" height="8" as="geometry" />
        </mxCell>
        <mxCell id="HHnZ4qpc_pkSZuf3FhQu-28" value="Meta Meta" style="text;strokeColor=none;fillColor=none;align=left;verticalAlign=top;spacingLeft=4;spacingRight=4;overflow=hidden;rotatable=0;points=[[0,0.5],[1,0.5]];portConstraint=eastwest;fontSize=14;fontStyle=0;fontFamily=Jetbrains Mono;" parent="HHnZ4qpc_pkSZuf3FhQu-21" vertex="1">
          <mxGeometry y="94" width="290" height="26" as="geometry" />
        </mxCell>
        <mxCell id="HHnZ4qpc_pkSZuf3FhQu-36" value="" style="line;strokeWidth=1;fillColor=none;align=left;verticalAlign=middle;spacingTop=-1;spacingLeft=3;spacingRight=3;rotatable=0;labelPosition=right;points=[];portConstraint=eastwest;fontSize=15;fontColor=#000000;fontFamily=Jetbrains Mono;" parent="HHnZ4qpc_pkSZuf3FhQu-21" vertex="1">
          <mxGeometry y="120" width="290" height="8" as="geometry" />
        </mxCell>
        <mxCell id="HHnZ4qpc_pkSZuf3FhQu-31" value="Dependencies []*Vertex" style="text;strokeColor=none;fillColor=none;align=left;verticalAlign=top;spacingLeft=4;spacingRight=4;overflow=hidden;rotatable=0;points=[[0,0.5],[1,0.5]];portConstraint=eastwest;fontSize=14;fontStyle=0;fontFamily=Jetbrains Mono;" parent="HHnZ4qpc_pkSZuf3FhQu-21" vertex="1">
          <mxGeometry y="128" width="290" height="30" as="geometry" />
        </mxCell>
        <mxCell id="HHnZ4qpc_pkSZuf3FhQu-37" value="" style="line;strokeWidth=1;fillColor=none;align=left;verticalAlign=middle;spacingTop=-1;spacingLeft=3;spacingRight=3;rotatable=0;labelPosition=right;points=[];portConstraint=eastwest;fontSize=15;fontColor=#000000;fontFamily=Jetbrains Mono;" parent="HHnZ4qpc_pkSZuf3FhQu-21" vertex="1">
          <mxGeometry y="158" width="290" height="8" as="geometry" />
        </mxCell>
        <mxCell id="HHnZ4qpc_pkSZuf3FhQu-30" value="Provides map[string]ProvidedEntry" style="text;strokeColor=none;fillColor=none;align=left;verticalAlign=top;spacingLeft=4;spacingRight=4;overflow=hidden;rotatable=0;points=[[0,0.5],[1,0.5]];portConstraint=eastwest;fontSize=14;fontStyle=0;fontFamily=Jetbrains Mono;" parent="HHnZ4qpc_pkSZuf3FhQu-21" vertex="1">
          <mxGeometry y="166" width="290" height="26" as="geometry" />
        </mxCell>
        <mxCell id="HHnZ4qpc_pkSZuf3FhQu-38" value="" style="line;strokeWidth=1;fillColor=none;align=left;verticalAlign=middle;spacingTop=-1;spacingLeft=3;spacingRight=3;rotatable=0;labelPosition=right;points=[];portConstraint=eastwest;fontSize=15;fontColor=#000000;fontFamily=Jetbrains Mono;" parent="HHnZ4qpc_pkSZuf3FhQu-21" vertex="1">
          <mxGeometry y="192" width="290" height="8" as="geometry" />
        </mxCell>
        <mxCell id="HHnZ4qpc_pkSZuf3FhQu-29" value="IsDisabled bool" style="text;strokeColor=none;fillColor=none;align=left;verticalAlign=top;spacingLeft=4;spacingRight=4;overflow=hidden;rotatable=0;points=[[0,0.5],[1,0.5]];portConstraint=eastwest;fontSize=14;fontStyle=0;fontFamily=Jetbrains Mono;" parent="HHnZ4qpc_pkSZuf3FhQu-21" vertex="1">
          <mxGeometry y="200" width="290" height="26" as="geometry" />
        </mxCell>
        <mxCell id="HHnZ4qpc_pkSZuf3FhQu-39" value="" style="line;strokeWidth=1;fillColor=none;align=left;verticalAlign=middle;spacingTop=-1;spacingLeft=3;spacingRight=3;rotatable=0;labelPosition=right;points=[];portConstraint=eastwest;fontSize=15;fontColor=#000000;fontFamily=Jetbrains Mono;" parent="HHnZ4qpc_pkSZuf3FhQu-21" vertex="1">
          <mxGeometry y="226" width="290" height="8" as="geometry" />
        </mxCell>
        <mxCell id="HHnZ4qpc_pkSZuf3FhQu-34" value="numOfDeps int" style="text;strokeColor=none;fillColor=none;align=left;verticalAlign=top;spacingLeft=4;spacingRight=4;overflow=hidden;rotatable=0;points=[[0,0.5],[1,0.5]];portConstraint=eastwest;fontSize=14;fontStyle=0;fontFamily=Jetbrains Mono;" parent="HHnZ4qpc_pkSZuf3FhQu-21" vertex="1">
          <mxGeometry y="234" width="290" height="26" as="geometry" />
        </mxCell>
        <mxCell id="HHnZ4qpc_pkSZuf3FhQu-40" value="" style="line;strokeWidth=1;fillColor=none;align=left;verticalAlign=middle;spacingTop=-1;spacingLeft=3;spacingRight=3;rotatable=0;labelPosition=right;points=[];portConstraint=eastwest;fontSize=15;fontColor=#000000;fontFamily=Jetbrains Mono;" parent="HHnZ4qpc_pkSZuf3FhQu-21" vertex="1">
          <mxGeometry y="260" width="290" height="8" as="geometry" />
        </mxCell>
        <mxCell id="HHnZ4qpc_pkSZuf3FhQu-33" value="visited   bool" style="text;strokeColor=none;fillColor=none;align=left;verticalAlign=top;spacingLeft=4;spacingRight=4;overflow=hidden;rotatable=0;points=[[0,0.5],[1,0.5]];portConstraint=eastwest;fontSize=14;fontStyle=0;fontFamily=Jetbrains Mono;" parent="HHnZ4qpc_pkSZuf3FhQu-21" vertex="1">
          <mxGeometry y="268" width="290" height="26" as="geometry" />
        </mxCell>
        <mxCell id="HHnZ4qpc_pkSZuf3FhQu-41" value="" style="line;strokeWidth=1;fillColor=none;align=left;verticalAlign=middle;spacingTop=-1;spacingLeft=3;spacingRight=3;rotatable=0;labelPosition=right;points=[];portConstraint=eastwest;fontSize=15;fontColor=#000000;fontFamily=Jetbrains Mono;" parent="HHnZ4qpc_pkSZuf3FhQu-21" vertex="1">
          <mxGeometry y="294" width="290" height="8" as="geometry" />
        </mxCell>
        <mxCell id="HHnZ4qpc_pkSZuf3FhQu-32" value="visiting  bool" style="text;strokeColor=none;fillColor=none;align=left;verticalAlign=top;spacingLeft=4;spacingRight=4;overflow=hidden;rotatable=0;points=[[0,0.5],[1,0.5]];portConstraint=eastwest;fontSize=14;fontStyle=0;fontFamily=Jetbrains Mono;" parent="HHnZ4qpc_pkSZuf3FhQu-21" vertex="1">
          <mxGeometry y="302" width="290" height="28" as="geometry" />
        </mxCell>
        <mxCell id="HHnZ4qpc_pkSZuf3FhQu-42" value="" style="line;strokeWidth=1;fillColor=none;align=left;verticalAlign=middle;spacingTop=-1;spacingLeft=3;spacingRight=3;rotatable=0;labelPosition=right;points=[];portConstraint=eastwest;fontSize=15;fontColor=#000000;fontFamily=Jetbrains Mono;" parent="HHnZ4qpc_pkSZuf3FhQu-21" vertex="1">
          <mxGeometry y="330" width="290" height="8" as="geometry" />
        </mxCell>
        <mxCell id="HHnZ4qpc_pkSZuf3FhQu-24" value="state uint32" style="text;strokeColor=none;fillColor=none;align=left;verticalAlign=top;spacingLeft=4;spacingRight=4;overflow=hidden;rotatable=0;points=[[0,0.5],[1,0.5]];portConstraint=eastwest;fontSize=14;fontStyle=0;fontFamily=Jetbrains Mono;" parent="HHnZ4qpc_pkSZuf3FhQu-21" vertex="1">
          <mxGeometry y="338" width="290" height="30" as="geometry" />
        </mxCell>
        <mxCell id="HHnZ4qpc_pkSZuf3FhQu-85" style="edgeStyle=orthogonalEdgeStyle;orthogonalLoop=1;jettySize=auto;html=1;exitX=0.5;exitY=0;exitDx=0;exitDy=0;entryX=0.5;entryY=0;entryDx=0;entryDy=0;fontSize=13;fontColor=#CC6600;fontFamily=Jetbrains Mono;" parent="1" source="HHnZ4qpc_pkSZuf3FhQu-43" target="HHnZ4qpc_pkSZuf3FhQu-21" edge="1">
          <mxGeometry relative="1" as="geometry" />
        </mxCell>
        <mxCell id="HHnZ4qpc_pkSZuf3FhQu-43" value="Graph" style="swimlane;fontStyle=1;childLayout=stackLayout;horizontal=1;startSize=26;fillColor=#f8cecc;horizontalStack=0;resizeParent=1;resizeParentMax=0;resizeLast=0;collapsible=1;marginBottom=0;fontSize=15;strokeWidth=2;strokeColor=#b85450;fontFamily=Jetbrains Mono;" parent="1" vertex="1">
          <mxGeometry x="5380" y="3400" width="290" height="130" as="geometry" />
        </mxCell>
        <mxCell id="HHnZ4qpc_pkSZuf3FhQu-44" value="VerticesMap map[string]*Vertex" style="text;strokeColor=none;fillColor=none;align=left;verticalAlign=top;spacingLeft=4;spacingRight=4;overflow=hidden;rotatable=0;points=[[0,0.5],[1,0.5]];portConstraint=eastwest;fontSize=14;fontStyle=0;fontFamily=Jetbrains Mono;" parent="HHnZ4qpc_pkSZuf3FhQu-43" vertex="1">
          <mxGeometry y="26" width="290" height="26" as="geometry" />
        </mxCell>
        <mxCell id="HHnZ4qpc_pkSZuf3FhQu-45" value="" style="line;strokeWidth=1;fillColor=none;align=left;verticalAlign=middle;spacingTop=-1;spacingLeft=3;spacingRight=3;rotatable=0;labelPosition=right;points=[];portConstraint=eastwest;fontSize=15;fontColor=#000000;fontFamily=Jetbrains Mono;" parent="HHnZ4qpc_pkSZuf3FhQu-43" vertex="1">
          <mxGeometry y="52" width="290" height="8" as="geometry" />
        </mxCell>
        <mxCell id="HHnZ4qpc_pkSZuf3FhQu-46" value="Vertices []*Vertex" style="text;strokeColor=none;fillColor=none;align=left;verticalAlign=top;spacingLeft=4;spacingRight=4;overflow=hidden;rotatable=0;points=[[0,0.5],[1,0.5]];portConstraint=eastwest;fontSize=14;fontStyle=0;fontFamily=Jetbrains Mono;" parent="HHnZ4qpc_pkSZuf3FhQu-43" vertex="1">
          <mxGeometry y="60" width="290" height="26" as="geometry" />
        </mxCell>
        <mxCell id="HHnZ4qpc_pkSZuf3FhQu-47" value="" style="line;strokeWidth=1;fillColor=none;align=left;verticalAlign=middle;spacingTop=-1;spacingLeft=3;spacingRight=3;rotatable=0;labelPosition=right;points=[];portConstraint=eastwest;fontSize=15;fontColor=#000000;fontFamily=Jetbrains Mono;" parent="HHnZ4qpc_pkSZuf3FhQu-43" vertex="1">
          <mxGeometry y="86" width="290" height="8" as="geometry" />
        </mxCell>
        <mxCell id="HHnZ4qpc_pkSZuf3FhQu-48" value="providers map[string]reflect.Value" style="text;strokeColor=none;fillColor=none;align=left;verticalAlign=top;spacingLeft=4;spacingRight=4;overflow=hidden;rotatable=0;points=[[0,0.5],[1,0.5]];portConstraint=eastwest;fontSize=14;fontStyle=0;fontFamily=Jetbrains Mono;" parent="HHnZ4qpc_pkSZuf3FhQu-43" vertex="1">
          <mxGeometry y="94" width="290" height="36" as="geometry" />
        </mxCell>
        <mxCell id="HHnZ4qpc_pkSZuf3FhQu-63" value="Entry" style="swimlane;fontStyle=1;childLayout=stackLayout;horizontal=1;startSize=26;fillColor=#e1d5e7;horizontalStack=0;resizeParent=1;resizeParentMax=0;resizeLast=0;collapsible=1;marginBottom=0;fontSize=15;strokeWidth=2;strokeColor=#9673a6;fontFamily=Jetbrains Mono;" parent="1" vertex="1">
          <mxGeometry x="5390" y="2950" width="290" height="192" as="geometry" />
        </mxCell>
        <mxCell id="HHnZ4qpc_pkSZuf3FhQu-64" value="RefID string" style="text;strokeColor=none;fillColor=none;align=left;verticalAlign=top;spacingLeft=4;spacingRight=4;overflow=hidden;rotatable=0;points=[[0,0.5],[1,0.5]];portConstraint=eastwest;fontSize=14;fontStyle=0;fontFamily=Jetbrains Mono;" parent="HHnZ4qpc_pkSZuf3FhQu-63" vertex="1">
          <mxGeometry y="26" width="290" height="26" as="geometry" />
        </mxCell>
        <mxCell id="HHnZ4qpc_pkSZuf3FhQu-65" value="" style="line;strokeWidth=1;fillColor=none;align=left;verticalAlign=middle;spacingTop=-1;spacingLeft=3;spacingRight=3;rotatable=0;labelPosition=right;points=[];portConstraint=eastwest;fontSize=15;fontColor=#000000;fontFamily=Jetbrains Mono;" parent="HHnZ4qpc_pkSZuf3FhQu-63" vertex="1">
          <mxGeometry y="52" width="290" height="8" as="geometry" />
        </mxCell>
        <mxCell id="HHnZ4qpc_pkSZuf3FhQu-66" value="Name string" style="text;strokeColor=none;fillColor=none;align=left;verticalAlign=top;spacingLeft=4;spacingRight=4;overflow=hidden;rotatable=0;points=[[0,0.5],[1,0.5]];portConstraint=eastwest;fontSize=14;fontStyle=0;fontFamily=Jetbrains Mono;" parent="HHnZ4qpc_pkSZuf3FhQu-63" vertex="1">
          <mxGeometry y="60" width="290" height="26" as="geometry" />
        </mxCell>
        <mxCell id="HHnZ4qpc_pkSZuf3FhQu-67" value="" style="line;strokeWidth=1;fillColor=none;align=left;verticalAlign=middle;spacingTop=-1;spacingLeft=3;spacingRight=3;rotatable=0;labelPosition=right;points=[];portConstraint=eastwest;fontSize=15;fontColor=#000000;fontFamily=Jetbrains Mono;" parent="HHnZ4qpc_pkSZuf3FhQu-63" vertex="1">
          <mxGeometry y="86" width="290" height="8" as="geometry" />
        </mxCell>
        <mxCell id="HHnZ4qpc_pkSZuf3FhQu-68" value="IsReference *bool" style="text;strokeColor=none;fillColor=none;align=left;verticalAlign=top;spacingLeft=4;spacingRight=4;overflow=hidden;rotatable=0;points=[[0,0.5],[1,0.5]];portConstraint=eastwest;fontSize=14;fontStyle=0;fontFamily=Jetbrains Mono;" parent="HHnZ4qpc_pkSZuf3FhQu-63" vertex="1">
          <mxGeometry y="94" width="290" height="26" as="geometry" />
        </mxCell>
        <mxCell id="HHnZ4qpc_pkSZuf3FhQu-69" value="" style="line;strokeWidth=1;fillColor=none;align=left;verticalAlign=middle;spacingTop=-1;spacingLeft=3;spacingRight=3;rotatable=0;labelPosition=right;points=[];portConstraint=eastwest;fontSize=15;fontColor=#000000;fontFamily=Jetbrains Mono;" parent="HHnZ4qpc_pkSZuf3FhQu-63" vertex="1">
          <mxGeometry y="120" width="290" height="8" as="geometry" />
        </mxCell>
        <mxCell id="HHnZ4qpc_pkSZuf3FhQu-70" value="IsDisabled bool" style="text;strokeColor=none;fillColor=none;align=left;verticalAlign=top;spacingLeft=4;spacingRight=4;overflow=hidden;rotatable=0;points=[[0,0.5],[1,0.5]];portConstraint=eastwest;fontSize=14;fontStyle=0;fontFamily=Jetbrains Mono;" parent="HHnZ4qpc_pkSZuf3FhQu-63" vertex="1">
          <mxGeometry y="128" width="290" height="30" as="geometry" />
        </mxCell>
        <mxCell id="HHnZ4qpc_pkSZuf3FhQu-71" value="" style="line;strokeWidth=1;fillColor=none;align=left;verticalAlign=middle;spacingTop=-1;spacingLeft=3;spacingRight=3;rotatable=0;labelPosition=right;points=[];portConstraint=eastwest;fontSize=15;fontColor=#000000;fontFamily=Jetbrains Mono;" parent="HHnZ4qpc_pkSZuf3FhQu-63" vertex="1">
          <mxGeometry y="158" width="290" height="8" as="geometry" />
        </mxCell>
        <mxCell id="HHnZ4qpc_pkSZuf3FhQu-72" value="Kind reflect.Kind" style="text;strokeColor=none;fillColor=none;align=left;verticalAlign=top;spacingLeft=4;spacingRight=4;overflow=hidden;rotatable=0;points=[[0,0.5],[1,0.5]];portConstraint=eastwest;fontSize=14;fontStyle=0;fontFamily=Jetbrains Mono;" parent="HHnZ4qpc_pkSZuf3FhQu-63" vertex="1">
          <mxGeometry y="166" width="290" height="26" as="geometry" />
        </mxCell>
        <mxCell id="HHnZ4qpc_pkSZuf3FhQu-86" value="Meta for the VertexID" style="swimlane;fontStyle=1;childLayout=stackLayout;horizontal=1;startSize=26;fillColor=#d5e8d4;horizontalStack=0;resizeParent=1;resizeParentMax=0;resizeLast=0;collapsible=1;marginBottom=0;fontSize=15;strokeWidth=2;strokeColor=#82b366;fontFamily=Jetbrains Mono;" parent="1" vertex="1">
          <mxGeometry x="5300" y="4140" width="370" height="226" as="geometry" />
        </mxCell>
        <mxCell id="HHnZ4qpc_pkSZuf3FhQu-87" value="Order int" style="text;strokeColor=none;fillColor=none;align=left;verticalAlign=top;spacingLeft=4;spacingRight=4;overflow=hidden;rotatable=0;points=[[0,0.5],[1,0.5]];portConstraint=eastwest;fontSize=14;fontStyle=0;fontFamily=Jetbrains Mono;" parent="HHnZ4qpc_pkSZuf3FhQu-86" vertex="1">
          <mxGeometry y="26" width="370" height="26" as="geometry" />
        </mxCell>
        <mxCell id="HHnZ4qpc_pkSZuf3FhQu-88" value="" style="line;strokeWidth=1;fillColor=none;align=left;verticalAlign=middle;spacingTop=-1;spacingLeft=3;spacingRight=3;rotatable=0;labelPosition=right;points=[];portConstraint=eastwest;fontSize=15;fontColor=#000000;fontStyle=1;fontFamily=Jetbrains Mono;" parent="HHnZ4qpc_pkSZuf3FhQu-86" vertex="1">
          <mxGeometry y="52" width="370" height="8" as="geometry" />
        </mxCell>
        <mxCell id="HHnZ4qpc_pkSZuf3FhQu-89" value="FnsProviderToInvoke ProviderEntries" style="text;strokeColor=none;fillColor=none;align=left;verticalAlign=top;spacingLeft=4;spacingRight=4;overflow=hidden;rotatable=0;points=[[0,0.5],[1,0.5]];portConstraint=eastwest;fontSize=14;fontStyle=0;fontFamily=Jetbrains Mono;" parent="HHnZ4qpc_pkSZuf3FhQu-86" vertex="1">
          <mxGeometry y="60" width="370" height="26" as="geometry" />
        </mxCell>
        <mxCell id="HHnZ4qpc_pkSZuf3FhQu-90" value="" style="line;strokeWidth=1;fillColor=none;align=left;verticalAlign=middle;spacingTop=-1;spacingLeft=3;spacingRight=3;rotatable=0;labelPosition=right;points=[];portConstraint=eastwest;fontSize=15;fontColor=#000000;fontStyle=0;fontFamily=Jetbrains Mono;" parent="HHnZ4qpc_pkSZuf3FhQu-86" vertex="1">
          <mxGeometry y="86" width="370" height="8" as="geometry" />
        </mxCell>
        <mxCell id="HHnZ4qpc_pkSZuf3FhQu-91" value="CollectorEntries CollectorEntries" style="text;strokeColor=none;fillColor=none;align=left;verticalAlign=top;spacingLeft=4;spacingRight=4;overflow=hidden;rotatable=0;points=[[0,0.5],[1,0.5]];portConstraint=eastwest;fontSize=14;fontStyle=0;fontFamily=Jetbrains Mono;" parent="HHnZ4qpc_pkSZuf3FhQu-86" vertex="1">
          <mxGeometry y="94" width="370" height="26" as="geometry" />
        </mxCell>
        <mxCell id="HHnZ4qpc_pkSZuf3FhQu-92" value="" style="line;strokeWidth=1;fillColor=none;align=left;verticalAlign=middle;spacingTop=-1;spacingLeft=3;spacingRight=3;rotatable=0;labelPosition=right;points=[];portConstraint=eastwest;fontSize=15;fontColor=#000000;fontFamily=Jetbrains Mono;" parent="HHnZ4qpc_pkSZuf3FhQu-86" vertex="1">
          <mxGeometry y="120" width="370" height="8" as="geometry" />
        </mxCell>
        <mxCell id="HHnZ4qpc_pkSZuf3FhQu-93" value="InitDepsToInvoke map[string][]Entry" style="text;strokeColor=none;fillColor=none;align=left;verticalAlign=top;spacingLeft=4;spacingRight=4;overflow=hidden;rotatable=0;points=[[0,0.5],[1,0.5]];portConstraint=eastwest;fontSize=14;fontStyle=0;fontFamily=Jetbrains Mono;" parent="HHnZ4qpc_pkSZuf3FhQu-86" vertex="1">
          <mxGeometry y="128" width="370" height="30" as="geometry" />
        </mxCell>
        <mxCell id="HHnZ4qpc_pkSZuf3FhQu-94" value="" style="line;strokeWidth=1;fillColor=none;align=left;verticalAlign=middle;spacingTop=-1;spacingLeft=3;spacingRight=3;rotatable=0;labelPosition=right;points=[];portConstraint=eastwest;fontSize=15;fontColor=#000000;fontFamily=Jetbrains Mono;" parent="HHnZ4qpc_pkSZuf3FhQu-86" vertex="1">
          <mxGeometry y="158" width="370" height="8" as="geometry" />
        </mxCell>
        <mxCell id="HHnZ4qpc_pkSZuf3FhQu-95" value="InitDepsOrd  []string" style="text;strokeColor=none;fillColor=none;align=left;verticalAlign=top;spacingLeft=4;spacingRight=4;overflow=hidden;rotatable=0;points=[[0,0.5],[1,0.5]];portConstraint=eastwest;fontSize=14;fontStyle=0;fontFamily=Jetbrains Mono;" parent="HHnZ4qpc_pkSZuf3FhQu-86" vertex="1">
          <mxGeometry y="166" width="370" height="26" as="geometry" />
        </mxCell>
        <mxCell id="HHnZ4qpc_pkSZuf3FhQu-96" value="" style="line;strokeWidth=1;fillColor=none;align=left;verticalAlign=middle;spacingTop=-1;spacingLeft=3;spacingRight=3;rotatable=0;labelPosition=right;points=[];portConstraint=eastwest;fontSize=15;fontColor=#000000;fontFamily=Jetbrains Mono;" parent="HHnZ4qpc_pkSZuf3FhQu-86" vertex="1">
          <mxGeometry y="192" width="370" height="8" as="geometry" />
        </mxCell>
        <mxCell id="HHnZ4qpc_pkSZuf3FhQu-97" value="CollectsDepsToInvoke map[string][]Entry" style="text;strokeColor=none;fillColor=none;align=left;verticalAlign=top;spacingLeft=4;spacingRight=4;overflow=hidden;rotatable=0;points=[[0,0.5],[1,0.5]];portConstraint=eastwest;fontSize=14;fontStyle=0;fontFamily=Jetbrains Mono;" parent="HHnZ4qpc_pkSZuf3FhQu-86" vertex="1">
          <mxGeometry y="200" width="370" height="26" as="geometry" />
        </mxCell>
        <mxCell id="HHnZ4qpc_pkSZuf3FhQu-106" style="edgeStyle=orthogonalEdgeStyle;orthogonalLoop=1;jettySize=auto;html=1;exitX=1;exitY=0.5;exitDx=0;exitDy=0;entryX=0.5;entryY=0;entryDx=0;entryDy=0;fontSize=13;fontColor=#CC6600;fontFamily=Jetbrains Mono;" parent="1" source="HHnZ4qpc_pkSZuf3FhQu-28" target="HHnZ4qpc_pkSZuf3FhQu-86" edge="1">
          <mxGeometry relative="1" as="geometry">
            <Array as="points">
              <mxPoint x="5950" y="3757" />
              <mxPoint x="5950" y="4090" />
              <mxPoint x="5485" y="4090" />
            </Array>
          </mxGeometry>
        </mxCell>
        <mxCell id="AKWeKp6k3Ee_MQOzL1RP-2" style="edgeStyle=orthogonalEdgeStyle;orthogonalLoop=1;jettySize=auto;html=1;exitX=1;exitY=0.5;exitDx=0;exitDy=0;entryX=0.5;entryY=0;entryDx=0;entryDy=0;fontColor=#FF0000;fontFamily=Jetbrains Mono;" parent="1" source="HHnZ4qpc_pkSZuf3FhQu-97" target="HHnZ4qpc_pkSZuf3FhQu-63" edge="1">
          <mxGeometry relative="1" as="geometry">
            <Array as="points">
              <mxPoint x="5670" y="4350" />
              <mxPoint x="5740" y="4350" />
              <mxPoint x="5740" y="2890" />
              <mxPoint x="5535" y="2890" />
            </Array>
          </mxGeometry>
        </mxCell>
        <mxCell id="jVUEl1n2tODpElSi2Gqy-6" style="edgeStyle=orthogonalEdgeStyle;orthogonalLoop=1;jettySize=auto;html=1;exitX=0.5;exitY=1;exitDx=0;exitDy=0;entryX=0.5;entryY=0;entryDx=0;entryDy=0;fontFamily=Jetbrains Mono;" edge="1" parent="1" source="jVUEl1n2tODpElSi2Gqy-1" target="jVUEl1n2tODpElSi2Gqy-4">
          <mxGeometry relative="1" as="geometry" />
        </mxCell>
        <mxCell id="jVUEl1n2tODpElSi2Gqy-1" value="&lt;font color=&quot;#000000&quot;&gt;PROGRAM START&lt;/font&gt;" style="whiteSpace=wrap;html=1;fontFamily=Jetbrains Mono;fillColor=#fa6800;strokeColor=#C73500;fontColor=#ffffff;" vertex="1" parent="1">
          <mxGeometry x="3690" y="3410" width="190" height="30" as="geometry" />
        </mxCell>
        <mxCell id="jVUEl1n2tODpElSi2Gqy-8" style="edgeStyle=orthogonalEdgeStyle;orthogonalLoop=1;jettySize=auto;html=1;exitX=1;exitY=0.5;exitDx=0;exitDy=0;entryX=0;entryY=0.5;entryDx=0;entryDy=0;fillColor=#ffe6cc;strokeColor=#d79b00;fontFamily=Jetbrains Mono;" edge="1" parent="1" source="jVUEl1n2tODpElSi2Gqy-4" target="HHnZ4qpc_pkSZuf3FhQu-44">
          <mxGeometry relative="1" as="geometry" />
        </mxCell>
        <mxCell id="jVUEl1n2tODpElSi2Gqy-9" style="edgeStyle=orthogonalEdgeStyle;orthogonalLoop=1;jettySize=auto;html=1;exitX=1;exitY=0.5;exitDx=0;exitDy=0;entryX=0;entryY=0.5;entryDx=0;entryDy=0;fillColor=#ffe6cc;strokeColor=#d79b00;fontFamily=Jetbrains Mono;" edge="1" parent="1" source="jVUEl1n2tODpElSi2Gqy-4" target="HHnZ4qpc_pkSZuf3FhQu-46">
          <mxGeometry relative="1" as="geometry">
            <Array as="points">
              <mxPoint x="4640" y="3617" />
              <mxPoint x="4640" y="3473" />
            </Array>
          </mxGeometry>
        </mxCell>
        <mxCell id="jVUEl1n2tODpElSi2Gqy-21" style="edgeStyle=orthogonalEdgeStyle;orthogonalLoop=1;jettySize=auto;html=1;exitX=0.5;exitY=1;exitDx=0;exitDy=0;entryX=0.5;entryY=0;entryDx=0;entryDy=0;fontFamily=Jetbrains Mono;fontSize=14;" edge="1" parent="1" source="jVUEl1n2tODpElSi2Gqy-4" target="jVUEl1n2tODpElSi2Gqy-20">
          <mxGeometry relative="1" as="geometry" />
        </mxCell>
        <mxCell id="jVUEl1n2tODpElSi2Gqy-4" value="&lt;sub&gt;&lt;font style=&quot;font-size: 16px&quot;&gt;Register (vertex ID)&lt;/font&gt;&lt;/sub&gt;" style="rhombus;whiteSpace=wrap;html=1;aspect=fixed;align=center;verticalAlign=middle;fontFamily=Jetbrains Mono;perimeter=rhombusPerimeter;fillColor=#fff2cc;strokeColor=#d6b656;" vertex="1" parent="1">
          <mxGeometry x="3670" y="3502" width="230" height="230" as="geometry" />
        </mxCell>
        <mxCell id="jVUEl1n2tODpElSi2Gqy-7" value="1. State - Unintitialized&lt;br style=&quot;font-size: 14px;&quot;&gt;&lt;div style=&quot;text-align: left; font-size: 14px;&quot;&gt;&lt;span style=&quot;font-size: 14px;&quot;&gt;2. AddVertex&lt;/span&gt;&lt;/div&gt;" style="text;html=1;align=center;verticalAlign=middle;resizable=0;points=[];autosize=1;fontFamily=Jetbrains Mono;fontSize=14;" vertex="1" parent="1">
          <mxGeometry x="3510" y="3535" width="230" height="40" as="geometry" />
        </mxCell>
        <mxCell id="jVUEl1n2tODpElSi2Gqy-10" style="edgeStyle=orthogonalEdgeStyle;orthogonalLoop=1;jettySize=auto;html=1;exitX=1;exitY=0.5;exitDx=0;exitDy=0;fontFamily=Jetbrains Mono;" edge="1" parent="1" source="HHnZ4qpc_pkSZuf3FhQu-93">
          <mxGeometry relative="1" as="geometry">
            <mxPoint x="5740" y="4283" as="targetPoint" />
          </mxGeometry>
        </mxCell>
        <mxCell id="jVUEl1n2tODpElSi2Gqy-11" value="Register both in the Vertices and VerticesMap" style="text;html=1;align=center;verticalAlign=middle;resizable=0;points=[];autosize=1;fontSize=14;fontFamily=Jetbrains Mono;" vertex="1" parent="1">
          <mxGeometry x="3900" y="3590" width="390" height="20" as="geometry" />
        </mxCell>
        <mxCell id="jVUEl1n2tODpElSi2Gqy-22" style="edgeStyle=orthogonalEdgeStyle;orthogonalLoop=1;jettySize=auto;html=1;exitX=1;exitY=0.5;exitDx=0;exitDy=0;fontFamily=Jetbrains Mono;fontSize=14;entryX=0.5;entryY=0;entryDx=0;entryDy=0;" edge="1" parent="1" source="jVUEl1n2tODpElSi2Gqy-20" target="jVUEl1n2tODpElSi2Gqy-27">
          <mxGeometry relative="1" as="geometry">
            <mxPoint x="4410" y="3985" as="targetPoint" />
          </mxGeometry>
        </mxCell>
        <mxCell id="jVUEl1n2tODpElSi2Gqy-23" value="IF vertex implements Provider Interface" style="edgeLabel;html=1;align=center;verticalAlign=middle;resizable=0;points=[];fontSize=14;fontFamily=Jetbrains Mono;" vertex="1" connectable="0" parent="jVUEl1n2tODpElSi2Gqy-22">
          <mxGeometry x="0.0373" y="-4" relative="1" as="geometry">
            <mxPoint x="-215.02" y="-23" as="offset" />
          </mxGeometry>
        </mxCell>
        <mxCell id="jVUEl1n2tODpElSi2Gqy-24" style="edgeStyle=orthogonalEdgeStyle;orthogonalLoop=1;jettySize=auto;html=1;exitX=0;exitY=0.5;exitDx=0;exitDy=0;fontFamily=Jetbrains Mono;fontSize=14;entryX=0;entryY=0.5;entryDx=0;entryDy=0;" edge="1" parent="1" source="jVUEl1n2tODpElSi2Gqy-20" target="jVUEl1n2tODpElSi2Gqy-4">
          <mxGeometry relative="1" as="geometry">
            <mxPoint x="3488" y="3985" as="targetPoint" />
            <Array as="points">
              <mxPoint x="3563" y="3985" />
              <mxPoint x="3563" y="3617" />
            </Array>
          </mxGeometry>
        </mxCell>
        <mxCell id="jVUEl1n2tODpElSi2Gqy-25" value="Vertex doesn&#39;t implemet Provider Interface" style="edgeLabel;html=1;align=center;verticalAlign=middle;resizable=0;points=[];fontSize=14;fontFamily=Jetbrains Mono;" vertex="1" connectable="0" parent="jVUEl1n2tODpElSi2Gqy-24">
          <mxGeometry x="-0.0732" relative="1" as="geometry">
            <mxPoint x="3.9200000000000017" y="-19" as="offset" />
          </mxGeometry>
        </mxCell>
        <mxCell id="jVUEl1n2tODpElSi2Gqy-50" style="edgeStyle=orthogonalEdgeStyle;rounded=0;orthogonalLoop=1;jettySize=auto;html=1;exitX=0.5;exitY=1;exitDx=0;exitDy=0;entryX=0.5;entryY=0;entryDx=0;entryDy=0;fontFamily=Jetbrains Mono;fontSize=14;" edge="1" parent="1" source="jVUEl1n2tODpElSi2Gqy-20" target="jVUEl1n2tODpElSi2Gqy-48">
          <mxGeometry relative="1" as="geometry" />
        </mxCell>
        <mxCell id="jVUEl1n2tODpElSi2Gqy-20" value="&lt;sub&gt;&lt;font style=&quot;font-size: 16px&quot;&gt;Add Providers&amp;nbsp; &amp;nbsp; &amp;nbsp; &amp;nbsp;(vertex ID)&lt;/font&gt;&lt;/sub&gt;" style="rhombus;whiteSpace=wrap;html=1;aspect=fixed;align=center;verticalAlign=middle;fontFamily=Jetbrains Mono;perimeter=rhombusPerimeter;fillColor=#ffe6cc;strokeColor=#d79b00;" vertex="1" parent="1">
          <mxGeometry x="3670" y="3870" width="230" height="230" as="geometry" />
        </mxCell>
        <mxCell id="jVUEl1n2tODpElSi2Gqy-28" style="edgeStyle=orthogonalEdgeStyle;orthogonalLoop=1;jettySize=auto;html=1;exitX=1;exitY=0.75;exitDx=0;exitDy=0;entryX=1;entryY=0.5;entryDx=0;entryDy=0;fontFamily=Jetbrains Mono;fontSize=14;fillColor=#e1d5e7;strokeColor=#9673a6;" edge="1" parent="1" source="jVUEl1n2tODpElSi2Gqy-27" target="HHnZ4qpc_pkSZuf3FhQu-89">
          <mxGeometry relative="1" as="geometry">
            <Array as="points">
              <mxPoint x="5810" y="4460" />
              <mxPoint x="5810" y="4213" />
            </Array>
          </mxGeometry>
        </mxCell>
        <mxCell id="jVUEl1n2tODpElSi2Gqy-29" value="Append Provider" style="edgeLabel;html=1;align=center;verticalAlign=middle;resizable=0;points=[];fontSize=14;fontFamily=Jetbrains Mono;" vertex="1" connectable="0" parent="jVUEl1n2tODpElSi2Gqy-28">
          <mxGeometry x="-0.0346" y="2" relative="1" as="geometry">
            <mxPoint as="offset" />
          </mxGeometry>
        </mxCell>
        <mxCell id="jVUEl1n2tODpElSi2Gqy-42" style="edgeStyle=orthogonalEdgeStyle;orthogonalLoop=1;jettySize=auto;html=1;exitX=0;exitY=0.25;exitDx=0;exitDy=0;entryX=0;entryY=0.5;entryDx=0;entryDy=0;fontFamily=Jetbrains Mono;fontSize=14;fillColor=#e1d5e7;strokeColor=#9673a6;" edge="1" parent="1" source="jVUEl1n2tODpElSi2Gqy-27" target="jVUEl1n2tODpElSi2Gqy-31">
          <mxGeometry relative="1" as="geometry" />
        </mxCell>
        <mxCell id="jVUEl1n2tODpElSi2Gqy-43" style="edgeStyle=orthogonalEdgeStyle;orthogonalLoop=1;jettySize=auto;html=1;exitX=0;exitY=0.5;exitDx=0;exitDy=0;entryX=0;entryY=0.5;entryDx=0;entryDy=0;fontFamily=Jetbrains Mono;fontSize=14;fillColor=#e1d5e7;strokeColor=#9673a6;" edge="1" parent="1" source="jVUEl1n2tODpElSi2Gqy-27" target="jVUEl1n2tODpElSi2Gqy-33">
          <mxGeometry relative="1" as="geometry">
            <Array as="points">
              <mxPoint x="4160" y="4475" />
              <mxPoint x="4160" y="4213" />
            </Array>
          </mxGeometry>
        </mxCell>
        <mxCell id="jVUEl1n2tODpElSi2Gqy-46" value="IF type is INTERFACE" style="edgeStyle=orthogonalEdgeStyle;orthogonalLoop=1;jettySize=auto;html=1;exitX=0.5;exitY=1;exitDx=0;exitDy=0;entryX=0.5;entryY=0;entryDx=0;entryDy=0;fontFamily=Jetbrains Mono;fontSize=14;" edge="1" parent="1" source="jVUEl1n2tODpElSi2Gqy-27" target="jVUEl1n2tODpElSi2Gqy-45">
          <mxGeometry x="1" y="125" relative="1" as="geometry">
            <mxPoint y="9" as="offset" />
          </mxGeometry>
        </mxCell>
        <mxCell id="jVUEl1n2tODpElSi2Gqy-27" value="LOOP over all provider functions:&lt;br&gt;1. Get vertexID&lt;br&gt;2. Make ProviderEndtry&lt;br&gt;3. getFunctionName&lt;br&gt;4. providerReturnType(fn)&lt;br&gt;5. LOOP over all return types&lt;br&gt;&amp;nbsp; &amp;nbsp;&lt;br&gt;&amp;nbsp; &amp;nbsp;5.1 Get Type as string&lt;br&gt;&amp;nbsp; &amp;nbsp;5.2 Add To vertex Providers map&lt;br&gt;&amp;nbsp; &amp;nbsp;END LOOP&lt;br&gt;END LOOP" style="whiteSpace=wrap;html=1;fontFamily=Jetbrains Mono;fontSize=14;align=left;verticalAlign=top;fillColor=#e1d5e7;strokeColor=#9673a6;comic=0;" vertex="1" parent="1">
          <mxGeometry x="4220" y="4350" width="330" height="250" as="geometry" />
        </mxCell>
        <mxCell id="jVUEl1n2tODpElSi2Gqy-44" style="edgeStyle=orthogonalEdgeStyle;orthogonalLoop=1;jettySize=auto;html=1;exitX=0.5;exitY=0;exitDx=0;exitDy=0;entryX=1;entryY=0.126;entryDx=0;entryDy=0;entryPerimeter=0;fontFamily=Jetbrains Mono;fontSize=14;" edge="1" parent="1" source="jVUEl1n2tODpElSi2Gqy-30" target="HHnZ4qpc_pkSZuf3FhQu-89">
          <mxGeometry relative="1" as="geometry" />
        </mxCell>
        <mxCell id="jVUEl1n2tODpElSi2Gqy-30" value="ProviderEntry" style="swimlane;fontStyle=1;childLayout=stackLayout;horizontal=1;startSize=26;fillColor=#d5e8d4;horizontalStack=0;resizeParent=1;resizeParentMax=0;resizeLast=0;collapsible=1;marginBottom=0;fontSize=15;strokeWidth=2;strokeColor=#82b366;fontFamily=Jetbrains Mono;" vertex="1" parent="1">
          <mxGeometry x="4880" y="4140" width="370" height="86" as="geometry" />
        </mxCell>
        <mxCell id="jVUEl1n2tODpElSi2Gqy-31" value="FunctionName  string" style="text;strokeColor=none;fillColor=none;align=left;verticalAlign=top;spacingLeft=4;spacingRight=4;overflow=hidden;rotatable=0;points=[[0,0.5],[1,0.5]];portConstraint=eastwest;fontSize=14;fontStyle=0;fontFamily=Jetbrains Mono;" vertex="1" parent="jVUEl1n2tODpElSi2Gqy-30">
          <mxGeometry y="26" width="370" height="26" as="geometry" />
        </mxCell>
        <mxCell id="jVUEl1n2tODpElSi2Gqy-32" value="" style="line;strokeWidth=1;fillColor=none;align=left;verticalAlign=middle;spacingTop=-1;spacingLeft=3;spacingRight=3;rotatable=0;labelPosition=right;points=[];portConstraint=eastwest;fontSize=15;fontColor=#000000;fontStyle=1;fontFamily=Jetbrains Mono;" vertex="1" parent="jVUEl1n2tODpElSi2Gqy-30">
          <mxGeometry y="52" width="370" height="8" as="geometry" />
        </mxCell>
        <mxCell id="jVUEl1n2tODpElSi2Gqy-33" value="ReturnTypeIds []string" style="text;strokeColor=none;fillColor=none;align=left;verticalAlign=top;spacingLeft=4;spacingRight=4;overflow=hidden;rotatable=0;points=[[0,0.5],[1,0.5]];portConstraint=eastwest;fontSize=14;fontStyle=0;fontFamily=Jetbrains Mono;" vertex="1" parent="jVUEl1n2tODpElSi2Gqy-30">
          <mxGeometry y="60" width="370" height="26" as="geometry" />
        </mxCell>
        <mxCell id="jVUEl1n2tODpElSi2Gqy-47" style="edgeStyle=orthogonalEdgeStyle;orthogonalLoop=1;jettySize=auto;html=1;exitX=1;exitY=0.5;exitDx=0;exitDy=0;entryX=1;entryY=0.5;entryDx=0;entryDy=0;fontFamily=Jetbrains Mono;fontSize=14;fillColor=#f5f5f5;strokeColor=#666666;" edge="1" parent="1" source="jVUEl1n2tODpElSi2Gqy-45" target="HHnZ4qpc_pkSZuf3FhQu-30">
          <mxGeometry relative="1" as="geometry">
            <Array as="points">
              <mxPoint x="6020" y="4700" />
              <mxPoint x="6020" y="3829" />
            </Array>
          </mxGeometry>
        </mxCell>
        <mxCell id="jVUEl1n2tODpElSi2Gqy-45" value="ADD PROVIDER" style="rhombus;whiteSpace=wrap;html=1;comic=0;fontFamily=Jetbrains Mono;fontSize=14;align=center;fillColor=#f5f5f5;strokeColor=#666666;fontColor=#333333;" vertex="1" parent="1">
          <mxGeometry x="4311.25" y="4630" width="147.5" height="140" as="geometry" />
        </mxCell>
        <mxCell id="jVUEl1n2tODpElSi2Gqy-56" value="Loop over vertices in the VerticesMap" style="edgeStyle=orthogonalEdgeStyle;rounded=0;orthogonalLoop=1;jettySize=auto;html=1;exitX=0.5;exitY=1;exitDx=0;exitDy=0;entryX=0.5;entryY=0;entryDx=0;entryDy=0;fontFamily=Jetbrains Mono;fontSize=14;" edge="1" parent="1" source="jVUEl1n2tODpElSi2Gqy-48" target="jVUEl1n2tODpElSi2Gqy-55">
          <mxGeometry relative="1" as="geometry" />
        </mxCell>
        <mxCell id="jVUEl1n2tODpElSi2Gqy-48" value="&lt;sub&gt;&lt;font style=&quot;font-size: 16px&quot;&gt;Initialize (Init)&lt;/font&gt;&lt;/sub&gt;" style="rhombus;whiteSpace=wrap;html=1;aspect=fixed;align=center;verticalAlign=middle;fontFamily=Jetbrains Mono;perimeter=rhombusPerimeter;fillColor=#dae8fc;strokeColor=#6c8ebf;shadow=0;" vertex="1" parent="1">
          <mxGeometry x="3669.997" y="4814.947" width="230" height="230" as="geometry" />
        </mxCell>
        <mxCell id="jVUEl1n2tODpElSi2Gqy-49" value="1. State - Initialized&lt;br style=&quot;font-size: 14px&quot;&gt;&lt;div style=&quot;text-align: left ; font-size: 14px&quot;&gt;&lt;span style=&quot;font-size: 14px&quot;&gt;2. func Initialize&lt;/span&gt;&lt;/div&gt;" style="text;html=1;align=center;verticalAlign=middle;resizable=0;points=[];autosize=1;fontFamily=Jetbrains Mono;fontSize=14;" vertex="1" parent="1">
          <mxGeometry x="3526.5769999999998" y="4822.826999999999" width="196.85" height="39.37" as="geometry" />
        </mxCell>
        <mxCell id="jVUEl1n2tODpElSi2Gqy-54" value="LOOP over all provider functions:&lt;br&gt;1. Get vertexID&lt;br&gt;2. Make ProviderEndtry&lt;br&gt;3. getFunctionName&lt;br&gt;4. providerReturnType(fn)&lt;br&gt;5. LOOP over all return types&lt;br&gt;&amp;nbsp; &amp;nbsp;&lt;br&gt;&amp;nbsp; &amp;nbsp;5.1 Get Type as string&lt;br&gt;&amp;nbsp; &amp;nbsp;5.2 Add To vertex Providers map&lt;br&gt;&amp;nbsp; &amp;nbsp;END LOOP&lt;br&gt;END LOOP" style="whiteSpace=wrap;html=1;fontFamily=Jetbrains Mono;fontSize=14;align=left;verticalAlign=top;fillColor=#e1d5e7;strokeColor=#9673a6;comic=0;" vertex="1" parent="1">
          <mxGeometry x="4219.997" y="5054.1269999999995" width="330" height="250" as="geometry" />
        </mxCell>
        <mxCell id="jVUEl1n2tODpElSi2Gqy-57" style="edgeStyle=orthogonalEdgeStyle;rounded=0;orthogonalLoop=1;jettySize=auto;html=1;exitX=0;exitY=0.5;exitDx=0;exitDy=0;fontFamily=Jetbrains Mono;fontSize=14;" edge="1" parent="1" source="jVUEl1n2tODpElSi2Gqy-55">
          <mxGeometry relative="1" as="geometry">
            <mxPoint x="3460.6229999999987" y="5178.823529411765" as="targetPoint" />
          </mxGeometry>
        </mxCell>
        <mxCell id="jVUEl1n2tODpElSi2Gqy-58" value="IF vertex implements Collector Interface" style="edgeStyle=orthogonalEdgeStyle;rounded=0;orthogonalLoop=1;jettySize=auto;html=1;exitX=1;exitY=0.5;exitDx=0;exitDy=0;fontFamily=Jetbrains Mono;fontSize=14;entryX=0;entryY=0.5;entryDx=0;entryDy=0;" edge="1" parent="1" source="jVUEl1n2tODpElSi2Gqy-55" target="jVUEl1n2tODpElSi2Gqy-54">
          <mxGeometry x="0.0019" y="26" relative="1" as="geometry">
            <mxPoint x="4090.5429999999997" y="5178.823529411765" as="targetPoint" />
            <Array as="points">
              <mxPoint x="4220" y="5179" />
            </Array>
            <mxPoint as="offset" />
          </mxGeometry>
        </mxCell>
        <mxCell id="jVUEl1n2tODpElSi2Gqy-55" value="&lt;sub&gt;&lt;font style=&quot;font-size: 16px&quot;&gt;add edges&lt;/font&gt;&lt;/sub&gt;" style="rhombus;whiteSpace=wrap;html=1;aspect=fixed;align=center;verticalAlign=middle;fontFamily=Jetbrains Mono;perimeter=rhombusPerimeter;fillColor=#dae8fc;strokeColor=#6c8ebf;shadow=0;" vertex="1" parent="1">
          <mxGeometry x="3716.11" y="5110.23" width="137.79" height="137.79" as="geometry" />
        </mxCell>
      </root>
    </mxGraphModel>
  </diagram>
</mxfile>
